# Blender v2.79 (sub 0) OBJ File: 'Cloud_1.blend'
# www.blender.org
o Cloud_1_Icosphere.044
v -1.008696 -0.365932 1.168554
v -2.341582 -0.544748 -1.648767
v -1.008696 -0.365932 -1.062862
v -1.984109 0.164678 2.167221
v -2.533567 0.802649 0.327555
v -1.931023 -0.841369 0.327556
v -2.238413 -0.425273 1.946488
v -0.793874 -0.426778 0.052846
v -3.670052 -0.539622 0.052846
v -1.238366 -0.019360 1.769762
v -3.220019 0.260400 1.744237
v -3.983514 0.191145 -0.213784
v -1.238366 -0.019360 -1.664071
v -2.777771 -0.060890 -2.054096
v -1.068586 0.388058 -1.008261
v -1.328684 0.632481 0.036294
v -2.123009 0.506027 -1.648768
v 0.734731 -0.331219 -0.025606
v 1.998994 -0.168688 -2.139980
v 2.576397 0.259473 2.135009
v 1.023581 0.361922 1.090102
v 1.023581 0.361922 -1.141314
v 1.945908 0.837359 0.249103
v 2.241063 -0.390563 1.868035
v 2.548454 -0.806659 -0.300316
v 1.674108 -0.726780 0.496942
v 1.083472 -0.392069 1.035501
v 1.083472 -0.392069 -1.086713
v 3.998399 -0.195155 0.241024
v 1.253252 0.015350 1.691310
v 1.253252 0.015350 -1.742523
v 3.234904 -0.264410 -1.716996
v 0.808759 0.422768 -0.025606
v 3.684936 0.535612 -0.025606
v 2.356467 0.540737 -1.727220
v -0.513380 -0.671576 -1.972847
v 1.854093 0.552950 0.755553
v 0.192971 1.023436 -0.735799
v -0.193120 -0.965116 0.755552
v -0.007969 -0.494633 2.453449
v 1.849211 -0.494630 0.774409
v 0.914002 -0.928489 0.009877
v -1.854241 -0.494631 0.755553
v -1.538377 -0.702242 -0.664427
v 1.150752 -0.494632 -1.961182
v 2.277739 0.082749 0.009877
v 1.282500 0.029160 2.225401
v -0.703960 -0.024430 2.728692
v -1.282648 0.029159 -2.205647
v -2.277887 -0.024430 0.009877
v 0.703812 0.082749 -2.708939
v -1.150901 0.552951 1.980936
v -1.849360 0.552950 -0.754655
v 0.007820 0.552953 -2.433695
v 0.513231 0.729895 1.992600
v 1.538230 0.760561 -0.664428
v -0.914148 0.986808 0.009876
vt 0.667058 0.647364
vt 0.492625 0.803095
vt 0.707686 0.853964
vt 0.492625 0.444627
vt 0.163734 0.495496
vt 0.414978 0.810590
vt 0.414978 0.452123
vt 0.163734 0.137029
vt 0.332485 0.527179
vt 0.667058 0.343628
vt 0.623622 0.454956
vt 0.434490 0.406922
vt 0.482585 0.543369
vt 0.248846 0.565508
vt 0.482585 0.462437
vt 0.606541 0.857029
vt 0.378670 0.803095
vt 0.606541 0.498561
vt 0.456316 0.810590
vt 0.378670 0.444627
vt 0.655731 0.691985
vt 0.456316 0.452123
vt 0.104452 0.186402
vt 0.378670 0.086160
vt 0.460461 0.544869
vt 0.604855 0.182295
vt 0.734679 0.444627
vt 0.604855 0.540763
vt 0.838594 0.462437
vt 0.734679 0.803095
vt 0.655731 0.333518
vt 0.623622 0.536036
vt 0.623622 0.500804
vt 0.332485 0.491199
vt 0.456316 0.622318
vt 0.414978 0.379290
vt 0.523563 0.491199
vt 0.136089 0.380476
vt 0.185123 0.549491
vt 0.541132 0.549491
vt 0.492098 0.380476
vt 0.181045 0.565508
vt 0.143850 0.406922
vt 0.623622 0.500804
vt 0.434490 0.503311
vt 0.667058 0.702096
vt 0.434490 0.144844
vt 0.351677 0.495496
vt 0.136616 0.444627
vt 0.311049 0.702096
vt 0.667058 0.288897
vt 0.523863 0.543082
vt 0.350717 0.348045
vt 0.382826 0.469484
vt 0.569644 0.414951
vt 0.633063 0.565294
vt 0.382826 0.508832
vt 0.633063 0.468402
vt 0.842713 0.868491
vt 0.513823 0.817622
vt 0.339390 0.661891
vt 0.339390 0.358156
vt 0.298762 0.151556
vt 0.513823 0.100687
vt 0.486704 0.510024
vt 0.235460 0.825117
vt 0.157814 0.459155
vt 0.591469 0.466650
vt 0.654771 0.510023
vt 0.695399 0.303424
vt 0.869832 0.459155
vt 0.457491 0.460146
vt 0.817578 0.444128
vt 0.506525 0.629161
vt 0.461569 0.444128
vt 0.463449 0.630346
vt 0.150516 0.629161
vt 0.523863 0.466267
vt 0.382826 0.508832
vt 0.591469 0.630346
vt 0.382826 0.550563
vt 0.465189 0.565294
vt 0.813500 0.460146
vt 0.862535 0.629161
vt 0.401593 0.444128
vt 0.167854 0.466267
vt 0.235460 0.630346
vt 0.350717 0.672002
vt 0.569644 0.517838
vt 0.514287 0.414951
vt 0.627779 0.560892
vt 0.523863 0.901550
vt 0.757602 0.823224
vt 0.350717 0.706512
vt 0.462420 0.413261
vt 0.284762 0.510023
vt 0.350717 0.313534
vt 0.569644 0.159371
vt 0.545987 0.460651
vt 0.271770 0.560892
vt 0.401593 0.823224
vt 0.901996 0.460651
vt 0.465293 0.365374
vt 0.210874 0.628316
vt 0.404724 0.870601
vt 0.674675 0.503453
vt 0.404724 0.512134
vt 0.210874 0.269849
vt 0.259238 0.555242
vt 0.359400 0.390881
vt 0.500000 0.524420
vt 0.092557 0.512026
vt 0.404724 0.349957
vt 0.259238 0.512026
vt 0.634923 0.524420
vt 0.506476 0.390881
vt 0.643991 0.524420
vt 0.143991 0.524420
vt 0.436722 0.628316
vt 0.147286 0.955938
vt 0.182303 0.641532
vt 0.538312 0.641532
vt 0.503295 0.955938
vt 0.328930 0.503453
vt 0.503295 0.597470
vt 0.152060 0.286557
vt 0.328930 0.144985
vt 0.508069 0.645024
vt 0.640164 0.138465
vt 0.684939 0.503453
vt 0.598880 0.136305
vt 0.284155 0.138465
vt 0.598880 0.494772
vt 0.792731 0.986784
vt 0.538312 1.000000
vt 0.852468 0.723841
vt 0.624007 0.681188
vt 0.362867 0.633171
vt 1.000000 0.524420
vt 0.634923 0.648438
vt 0.792731 0.269849
vt 0.503295 0.633172
vt 0.615247 0.555242
vt 0.508069 0.286557
vt 0.859304 0.597470
vt 0.500000 0.499632
vt 0.137515 0.633171
vt 0.640600 0.633171
vt 0.368681 0.499632
vt 0.598880 0.674095
vt 0.284155 0.633171
vt 0.388358 0.451664
vt 0.496459 0.723841
vt 0.242871 0.494772
vt 0.448566 0.512026
vt 0.856009 0.524420
vt 0.718876 0.633171
vt 0.363441 0.390881
vt 0.048715 0.349957
vt 0.278914 0.524420
vt 0.551434 0.512026
vt 0.143991 0.499632
vt 0.284591 0.633171
vt 0.267998 0.342864
vt 0.624007 0.342864
vt 0.362867 0.390881
vt 0.000000 0.499632
vt 0.507146 0.365373
vt 0.856318 0.050968
vt 0.724690 0.000000
vt 0.744367 0.512026
vt 0.500309 0.390881
vt 0.500309 0.409435
vt 0.851545 0.720349
vt 0.744367 0.451664
vt 0.862485 0.390881
vt 0.719450 0.868441
vt 0.566883 0.628316
vt 0.821302 0.365374
vt 0.500309 0.050968
vt 0.151137 0.365373
vt 0.495536 0.361882
vt 0.318666 0.503453
vt 0.363441 0.868441
vt 0.851545 0.361882
vn 0.3656 -0.9229 0.1207
vn -0.1520 -0.9816 -0.1157
vn -0.4994 -0.7749 -0.3876
vn 0.3485 -0.7483 -0.5645
vn -0.3311 -0.2021 0.9217
vn 0.1979 0.9429 0.2679
vn 0.1090 0.9861 -0.1254
vn 0.2122 0.9619 -0.1722
vn -0.3146 0.9269 -0.2045
vn -0.4274 0.8939 0.1350
vn -0.0432 0.9399 0.3388
vn 0.4176 0.7194 -0.5550
vn -0.4449 0.8007 -0.4012
vn 0.3796 0.8723 0.3082
vn 0.2162 0.3902 -0.8950
vn 0.2256 -0.4981 -0.8373
vn -0.7608 -0.4841 -0.4322
vn -0.8980 -0.2542 0.3592
vn -0.5684 -0.6749 0.4705
vn 0.3300 -0.4523 0.8286
vn 0.3938 -0.7232 0.5673
vn 0.2113 -0.9592 -0.1879
vn -0.1991 -0.9576 0.2083
vn 0.3163 -0.9420 -0.1123
vn 0.2236 -0.9329 0.2822
vn -0.4647 -0.6932 -0.5509
vn -0.2673 -0.2448 0.9320
vn 0.2010 0.9534 0.2250
vn -0.1675 0.9255 0.3396
vn -0.3163 0.9420 -0.1123
vn 0.1520 0.9816 -0.1157
vn -0.2113 0.9592 -0.1879
vn -0.3656 0.9229 0.1207
vn 0.8980 0.2542 -0.3592
vn 0.6005 0.6492 -0.4668
vn -0.2662 0.5815 -0.7688
vn -0.3485 0.7483 -0.5645
vn -0.3287 0.7585 0.5628
vn 0.7511 0.4854 0.4474
vn 0.3277 0.3463 -0.8790
vn -0.3991 -0.7290 0.5562
vn 0.6000 -0.5486 0.5822
vn 0.0432 -0.9399 -0.3388
vn -0.1094 -0.9488 -0.2963
vn -0.2057 -0.9702 -0.1283
vn -0.3569 -0.9320 -0.0639
vn -0.4283 -0.8992 0.0892
vn -0.2290 -0.9193 0.3201
vn 0.4274 -0.8939 -0.1350
vn 0.0937 -0.9752 0.2004
vn 0.3077 -0.9254 0.2212
vn -0.0926 -0.9911 -0.0958
vn -0.0363 -0.9941 -0.1027
vn -0.5316 -0.7276 -0.4335
vn 0.9047 -0.1377 0.4031
vn -0.2001 -0.4996 -0.8428
vn 0.8653 0.0211 -0.5009
vn 0.1984 0.9388 -0.2818
vn -0.1946 0.9505 -0.2422
vn -0.2290 0.9399 -0.2533
vn -0.5016 0.8556 0.1281
vn 0.0363 0.9941 0.1027
vn -0.1050 0.9738 0.2017
vn 0.1869 0.9788 0.0834
vn 0.2152 0.9720 0.0942
vn 0.6999 0.7124 -0.0515
vn 0.7905 0.4072 -0.4576
vn 0.3837 0.8184 -0.4279
vn -0.2459 0.1922 -0.9501
vn -0.4032 0.7991 -0.4459
vn -0.6693 0.7231 0.1709
vn -0.0856 0.7632 0.6405
vn 0.5185 0.7216 0.4588
vn 0.8985 0.1632 0.4076
vn 0.0856 -0.7632 -0.6405
vn -0.9047 0.1377 -0.4031
vn -0.7878 -0.4955 -0.3659
vn -0.6999 -0.7124 -0.0515
vn -0.8653 -0.0211 0.5009
vn -0.8653 0.0148 0.5010
vn -0.3874 -0.8200 0.4213
vn 0.2001 0.4996 0.8428
vn 0.2459 -0.1922 0.9501
vn 0.4032 -0.7991 0.4459
vn 0.6693 -0.7231 -0.1709
vn 0.1050 -0.9738 -0.2017
vn -0.2716 -0.9591 0.0798
vn -0.2613 -0.9225 0.2841
vn 0.5016 -0.8556 -0.1281
vn 0.1946 -0.9505 0.2422
vn 0.2290 -0.9399 0.2533
s 1
f 1/1/1 6/2/1 8/3/1
f 6/4/2 9/5/2 2/6/2
f 2/7/3 9/8/3 14/9/3
f 3/10/4 2/7/4 13/11/4
f 7/12/5 4/13/5 11/14/5
f 4/15/6 16/16/6 5/17/6
f 16/18/7 17/19/7 5/20/7
f 16/18/8 15/21/8 17/19/8
f 17/22/9 12/23/9 5/24/9
f 12/25/10 11/26/10 5/27/10
f 11/28/11 4/29/11 5/30/11
f 13/11/12 17/22/12 15/31/12
f 14/9/13 12/23/13 17/22/13
f 10/32/14 16/16/14 4/15/14
f 13/33/15 14/34/15 17/35/15
f 13/33/16 2/36/16 14/34/16
f 14/37/17 9/38/17 12/39/17
f 12/40/18 9/41/18 11/42/18
f 9/41/19 7/43/19 11/42/19
f 4/13/20 7/12/20 10/44/20
f 7/45/21 1/1/21 10/32/21
f 6/4/22 2/6/22 3/46/22
f 6/4/23 7/47/23 9/5/23
f 8/48/24 6/49/24 3/50/24
f 6/4/25 1/51/25 7/47/25
f 19/52/26 28/53/26 31/54/26
f 24/55/27 20/56/27 30/57/27
f 20/58/28 34/59/28 23/60/28
f 21/61/29 20/58/29 23/60/29
f 22/62/30 33/63/30 23/64/30
f 34/65/31 35/66/31 23/67/31
f 35/68/32 22/62/32 23/64/32
f 33/69/33 21/70/33 23/71/33
f 29/72/34 32/73/34 34/74/34
f 32/75/35 35/76/35 34/77/35
f 19/78/36 31/79/36 35/80/36
f 31/54/37 22/62/37 35/68/37
f 30/81/38 20/58/38 21/61/38
f 20/82/39 29/83/39 34/84/39
f 32/85/40 19/86/40 35/87/40
f 27/88/41 24/89/41 30/81/41
f 24/90/42 29/83/42 20/82/42
f 25/91/43 19/92/43 32/93/43
f 25/91/44 28/94/44 19/92/44
f 25/91/45 26/95/45 28/94/45
f 26/95/46 18/96/46 28/94/46
f 26/95/47 27/97/47 18/96/47
f 26/95/48 24/98/48 27/97/48
f 29/99/49 25/100/49 32/101/49
f 26/95/50 25/91/50 24/98/50
f 25/91/51 29/102/51 24/98/51
f 39/103/52 44/104/52 36/105/52
f 39/103/53 36/105/53 42/106/53
f 36/107/54 44/108/54 49/109/54
f 41/110/55 46/111/55 47/112/55
f 36/113/56 49/114/56 51/115/56
f 45/116/57 51/117/57 46/118/57
f 56/119/58 54/120/58 38/121/58
f 38/122/59 54/123/59 57/124/59
f 54/125/60 53/126/60 57/127/60
f 53/128/61 52/129/61 57/130/61
f 57/124/62 55/131/62 38/122/62
f 57/124/63 52/132/63 55/131/63
f 55/133/64 56/134/64 38/135/64
f 55/133/65 37/136/65 56/134/65
f 46/111/66 56/137/66 37/138/66
f 46/111/67 51/139/67 56/137/67
f 51/140/68 54/125/68 56/141/68
f 51/115/69 49/114/69 54/142/69
f 49/143/70 53/144/70 54/145/70
f 50/146/71 52/147/71 53/148/71
f 48/149/72 55/150/72 52/151/72
f 47/152/73 37/153/73 55/154/73
f 47/155/74 46/156/74 37/157/74
f 45/158/75 36/159/75 51/160/75
f 49/161/76 50/162/76 53/163/76
f 49/161/77 44/164/77 50/162/77
f 44/165/78 43/166/78 50/146/78
f 50/146/79 48/167/79 52/147/79
f 50/146/80 43/166/80 48/167/80
f 43/168/81 40/169/81 48/170/81
f 48/149/82 47/171/82 55/150/82
f 48/149/83 40/172/83 47/171/83
f 40/173/84 41/174/84 47/175/84
f 41/110/85 45/176/85 46/111/85
f 42/106/86 36/105/86 45/177/86
f 44/178/87 39/179/87 43/168/87
f 39/103/88 40/180/88 43/181/88
f 41/182/89 42/183/89 45/184/89
f 39/103/90 42/106/90 40/180/90
f 42/106/91 41/185/91 40/180/91
